# Mesh "M67" exported with Unity Assets Bundle Extractor; 166 vertices, 546 indices, 256 bits per vertex
g M67
# SubMesh 0
# Vertices
v -0.000001 0.000002 -0.081853
vt 0.398437 0.441635
vn -0.000000 0.000000 -1.000000
v -0.029022 -0.039942 -0.069494
vt 0.593793 0.521621
vn -0.358700 -0.493706 -0.792205
v -0.000001 -0.049372 -0.069494
vt 0.626574 0.520222
vn 0.000000 -0.610254 -0.792206
v -0.000001 -0.079886 -0.025957
vt 0.791173 0.607488
vn -0.000000 -0.958474 -0.285180
v -0.046958 -0.064629 -0.025957
vt 0.724341 0.612851
vn -0.563377 -0.775422 -0.285180
v -0.046958 -0.015255 -0.069494
vt 0.547961 0.522367
vn -0.580387 -0.188578 -0.792205
v -0.000001 0.000002 -0.081853
vt 0.398437 0.441635
vn -0.000000 0.000000 -1.000000
v -0.075980 -0.024685 -0.025957
vt 0.668072 0.610857
vn -0.911563 -0.296184 -0.285180
v -0.046958 0.015260 -0.069494
vt 0.501439 0.522780
vn -0.580387 0.188579 -0.792205
v -0.000001 0.000002 -0.081853
vt 0.398437 0.441635
vn -0.000000 0.000000 -1.000000
v -0.075980 0.024689 -0.025957
vt 0.600921 0.610498
vn -0.911563 0.296184 -0.285180
v -0.029022 0.039947 -0.069494
vt 0.455412 0.523005
vn -0.358699 0.493706 -0.792206
v -0.000001 0.000002 -0.081853
vt 0.398437 0.441635
vn -0.000000 0.000000 -1.000000
v -0.046959 0.064634 -0.025957
vt 0.520141 0.613070
vn -0.563378 0.775421 -0.285180
v -0.000001 0.049376 -0.069494
vt 0.410557 0.523072
vn -0.000000 0.610254 -0.792206
v -0.000001 0.000002 -0.081853
vt 0.398437 0.441635
vn -0.000000 0.000000 -1.000000
v -0.000001 0.079891 -0.025957
vt 0.408383 0.613140
vn 0.000000 0.958474 -0.285180
v 0.029020 0.039947 -0.069494
vt 0.365805 0.523001
vn 0.358700 0.493706 -0.792205
v -0.000001 0.000002 -0.081853
vt 0.398437 0.441635
vn -0.000000 0.000000 -1.000000
v 0.046956 0.064634 -0.025957
vt 0.321348 0.609652
vn 0.563376 0.775422 -0.285180
v 0.046956 0.015260 -0.069494
vt 0.320456 0.522773
vn 0.580386 0.188579 -0.792206
v -0.000001 0.000002 -0.081853
vt 0.398437 0.441635
vn -0.000000 0.000000 -1.000000
v 0.075978 0.024689 -0.025957
vt 0.234389 0.610358
vn 0.911563 0.296184 -0.285180
v 0.046956 -0.015255 -0.069494
vt 0.274810 0.522312
vn 0.580386 -0.188580 -0.792206
v -0.000001 0.000002 -0.081853
vt 0.398437 0.441635
vn -0.000000 0.000000 -1.000000
v 0.075978 -0.024685 -0.025957
vt 0.161170 0.606232
vn 0.911562 -0.296187 -0.285180
v 0.029020 -0.039942 -0.069494
vt 0.195142 0.520436
vn 0.358698 -0.493706 -0.792206
v -0.000001 0.000002 -0.081853
vt 0.398437 0.441635
vn -0.000000 0.000000 -1.000000
v 0.046956 -0.064629 -0.025957
vt 0.087344 0.609243
vn 0.563377 -0.775422 -0.285180
v -0.000001 -0.049372 -0.069494
vt 0.135572 0.514488
vn 0.000000 -0.610254 -0.792206
v -0.000001 0.000002 -0.081853
vt 0.398437 0.441635
vn -0.000000 0.000000 -1.000000
v -0.000001 -0.079886 -0.025957
vt 0.031063 0.607635
vn -0.000000 -0.958474 -0.285180
v -0.000001 0.079891 0.025957
vt 0.408819 0.736931
vn 0.000001 0.965441 0.260621
v -0.046959 0.064634 0.025957
vt 0.514785 0.736929
vn -0.567473 0.781058 0.260621
v -0.075980 0.024689 0.025957
vt 0.623558 0.736873
vn -0.918190 0.298337 0.260621
v -0.075980 -0.024685 0.025957
vt 0.688535 0.736762
vn -0.918189 -0.298338 0.260621
v -0.046958 -0.064629 0.025957
vt 0.754370 0.737729
vn -0.567472 -0.781058 0.260621
v -0.000001 -0.079886 0.025957
vt 0.807000 0.736567
vn -0.000000 -0.965441 0.260621
v 0.046956 -0.064629 0.025957
vt 0.078393 0.736508
vn 0.567472 -0.781059 0.260621
v 0.075978 -0.024685 0.025957
vt 0.152766 0.733339
vn 0.918189 -0.298339 0.260621
v 0.075978 0.024689 0.025957
vt 0.229004 0.733465
vn 0.918189 0.298337 0.260622
v 0.046956 0.064634 0.025957
vt 0.311929 0.732425
vn 0.567471 0.781059 0.260620
v -0.000001 -0.059881 0.058240
vt 0.762730 0.828417
vn -0.000001 -0.713666 0.700486
v -0.035199 -0.048444 0.058240
vt 0.704797 0.826391
vn -0.419483 -0.577368 0.700486
v -0.056953 -0.018503 0.058240
vt 0.641434 0.825911
vn -0.678737 -0.220535 0.700485
v -0.056953 0.018507 0.058240
vt 0.576910 0.827313
vn -0.678738 0.220534 0.700485
v -0.035199 0.048449 0.058240
vt 0.490373 0.827295
vn -0.419483 0.577367 0.700486
v -0.000001 0.059886 0.058240
vt 0.402629 0.827311
vn 0.000001 0.713667 0.700486
v 0.035197 0.048449 0.058240
vt 0.325882 0.826121
vn 0.419481 0.577369 0.700486
v 0.056951 0.018507 0.058240
vt 0.251762 0.826108
vn 0.678737 0.220533 0.700486
v 0.056951 -0.018503 0.058240
vt 0.177225 0.827117
vn 0.678737 -0.220535 0.700486
v 0.035197 -0.048444 0.058240
vt 0.105370 0.826118
vn 0.419482 -0.577369 0.700486
v -0.000001 -0.079886 0.025957
vt 0.012059 0.736382
vn -0.000000 -0.965441 0.260621
v -0.000001 -0.059881 0.058240
vt 0.041821 0.827865
vn -0.000001 -0.713666 0.700486
v -0.025533 0.008298 0.076471
vt 0.509861 0.905310
vn -0.789375 0.256484 0.557767
v -0.025533 -0.008293 0.076471
vt 0.571691 0.906462
vn -0.789375 -0.256484 0.557767
v -0.015780 -0.021716 0.076471
vt 0.627068 0.905477
vn -0.487862 -0.671482 0.557766
v -0.000001 -0.026843 0.076471
vt 0.678439 0.905865
vn 0.000000 -0.829998 0.557767
v 0.025531 -0.008293 0.076471
vt 0.230586 0.905278
vn 0.789374 -0.256484 0.557767
v 0.025531 0.008298 0.076471
vt 0.289048 0.905349
vn 0.789375 0.256483 0.557767
v 0.015778 0.021721 0.076471
vt 0.344433 0.905258
vn 0.487860 0.671482 0.557767
v -0.000001 0.026848 0.076471
vt 0.400316 0.905181
vn 0.000001 0.829997 0.557768
v -0.015780 0.021721 0.076471
vt 0.455179 0.905335
vn -0.487862 0.671481 0.557768
v -0.015780 -0.021716 0.105043
vt 0.602549 0.980911
vn -0.587787 -0.809016 0.000000
v -0.000001 -0.026843 0.105043
vt 0.650546 0.980850
vn -0.000000 -1.000000 0.000000
v -0.025533 -0.008293 0.105043
vt 0.552033 0.980955
vn -0.951056 -0.309018 0.000000
v -0.015780 0.021721 0.105043
vt 0.449233 0.980989
vn -0.587786 0.809016 0.000000
v -0.025533 0.008298 0.105043
vt 0.500909 0.980978
vn -0.951057 0.309017 0.000000
v -0.000001 0.026848 0.105043
vt 0.398195 0.980995
vn 0.000001 1.000000 0.000000
v 0.015778 0.021721 0.105043
vt 0.346060 0.980987
vn 0.587786 0.809017 0.000000
v 0.025531 0.008298 0.105043
vt 0.293069 0.980970
vn 0.951056 0.309017 0.000000
v 0.025531 -0.008293 0.105043
vt 0.240759 0.980946
vn 0.951056 -0.309018 0.000000
v 0.015778 -0.021716 0.105043
vt 0.187515 0.980905
vn 0.587787 -0.809016 0.000000
v 0.015778 -0.021716 0.076471
vt 0.172159 0.905487
vn 0.487861 -0.671482 0.557766
v -0.000001 -0.026843 0.076471
vt 0.115059 0.905727
vn 0.000000 -0.829998 0.557767
v -0.000001 -0.026843 0.105043
vt 0.133968 0.980850
vn -0.000000 -1.000000 0.000000
v 0.018520 -0.045167 0.104223
vt 0.074125 0.338967
vn 0.805321 0.229235 -0.546726
v 0.018520 -0.000155 0.122010
vt 0.168071 0.372613
vn 0.987229 0.001053 0.159302
v 0.018520 -0.021563 0.104223
vt 0.121838 0.338470
vn 0.681980 -0.092363 -0.725515
v 0.018520 -0.037099 0.164088
vt 0.091695 0.459805
vn 0.641699 -0.245320 0.726664
v 0.026759 -0.009550 0.104223
vt 0.150008 0.331185
vn 0.848592 -0.310730 -0.428181
v 0.026759 0.009241 0.104223
vt 0.187496 0.331737
vn 0.843974 0.330111 -0.422769
v 0.018520 0.020241 0.104223
vt 0.213622 0.339989
vn 0.677498 0.101873 -0.728436
v 0.018520 0.023942 0.164088
vt 0.214058 0.461618
vn 0.628490 0.305394 0.715356
v 0.018520 0.030168 0.157588
vt 0.227092 0.449181
vn 0.632053 0.719095 0.288809
v 0.018520 0.030168 0.104223
vt 0.233648 0.341822
vn 0.577350 0.577350 -0.577350
v 0.018520 -0.041961 0.160382
vt 0.081789 0.452418
vn 0.650989 -0.606257 0.456799
v 0.018520 -0.061263 0.110885
vt 0.041729 0.352772
vn 0.706772 -0.659483 0.256036
v 0.018520 -0.061415 0.087692
vt 0.040933 0.305894
vn 0.605603 0.188823 -0.773040
v 0.018520 -0.069242 0.090242
vt 0.025165 0.311212
vn 0.574567 -0.739267 -0.351222
v 0.026759 -0.009550 0.104223
vt 0.413343 0.420799
vn 0.848592 -0.310730 -0.428181
v -0.018651 -0.021563 0.104223
vt 0.388801 0.328024
vn -0.681981 -0.092362 -0.725515
v 0.018520 -0.021563 0.104223
vt 0.388801 0.403967
vn 0.681980 -0.092363 -0.725515
v -0.026889 -0.009550 0.104223
vt 0.413343 0.311191
vn -0.848592 -0.310726 -0.428184
v 0.026759 0.009241 0.104223
vt 0.451735 0.420799
vn 0.843974 0.330111 -0.422769
v -0.026889 0.009241 0.104223
vt 0.451735 0.311191
vn -0.843974 0.330108 -0.422772
v -0.018651 -0.045167 0.104223
vt 0.340576 0.328024
vn -0.805322 0.229236 -0.546725
v 0.018520 -0.045167 0.104223
vt 0.340576 0.403967
vn 0.805321 0.229235 -0.546726
v -0.018651 0.020241 0.104223
vt 0.474208 0.328024
vn -0.677498 0.101872 -0.728436
v 0.018520 0.020241 0.104223
vt 0.474208 0.403967
vn 0.677498 0.101873 -0.728436
v -0.018651 0.030168 0.104223
vt 0.494491 0.328024
vn -0.577350 0.577350 -0.577350
v 0.018520 0.030168 0.104223
vt 0.494491 0.403967
vn 0.577350 0.577350 -0.577350
v 0.018520 -0.061415 0.087692
vt 0.293218 0.403967
vn 0.605603 0.188823 -0.773040
v -0.018651 -0.061415 0.087692
vt 0.293218 0.328024
vn -0.605603 0.188823 -0.773040
v 0.018520 0.030168 0.157588
vt 0.355514 0.197328
vn 0.632053 0.719095 0.288809
v -0.018651 0.030168 0.104223
vt 0.464541 0.121386
vn -0.577350 0.577350 -0.577350
v 0.018520 0.030168 0.104223
vt 0.464541 0.197328
vn 0.577350 0.577350 -0.577350
v -0.018651 0.030168 0.157588
vt 0.355514 0.121386
vn -0.632053 0.719095 0.288809
v -0.018651 0.023942 0.164088
vt 0.337125 0.121386
vn -0.628490 0.305394 0.715356
v 0.018520 0.023942 0.164088
vt 0.337125 0.197328
vn 0.628490 0.305394 0.715356
v -0.018651 -0.037099 0.164088
vt 0.212413 0.121386
vn -0.641699 -0.245320 0.726664
v 0.018520 -0.037099 0.164088
vt 0.212413 0.197328
vn 0.641699 -0.245320 0.726664
v -0.018651 -0.041961 0.160382
vt 0.199924 0.121386
vn -0.650988 -0.606258 0.456800
v 0.018520 -0.041961 0.160382
vt 0.199924 0.197328
vn 0.650989 -0.606257 0.456799
v -0.018651 -0.061263 0.110885
vt 0.091380 0.121386
vn -0.706773 -0.659483 0.256037
v 0.018520 -0.061263 0.110885
vt 0.091380 0.197328
vn 0.706772 -0.659483 0.256036
v -0.018651 -0.069242 0.090242
vt 0.046162 0.121386
vn -0.574567 -0.739267 -0.351222
v 0.018520 -0.069242 0.090242
vt 0.046162 0.197328
vn 0.574567 -0.739267 -0.351222
v -0.018651 -0.061415 0.087692
vt 0.072076 0.305150
vn -0.605603 0.188823 -0.773040
v 0.018520 -0.069242 0.090242
vt 0.088894 0.229207
vn 0.574567 -0.739267 -0.351222
v 0.018520 -0.061415 0.087692
vt 0.072076 0.229207
vn 0.605603 0.188823 -0.773040
v -0.018651 -0.069242 0.090242
vt 0.088894 0.305150
vn -0.574567 -0.739267 -0.351222
v -0.018651 -0.000155 0.122010
vt 0.167765 0.372523
vn -0.987230 0.001053 0.159300
v -0.018651 -0.045167 0.104223
vt 0.073819 0.338877
vn -0.805322 0.229236 -0.546725
v -0.018651 -0.021563 0.104223
vt 0.121532 0.338380
vn -0.681981 -0.092362 -0.725515
v -0.018651 -0.037099 0.164088
vt 0.091389 0.459715
vn -0.641699 -0.245320 0.726664
v -0.026889 -0.009550 0.104223
vt 0.149702 0.331095
vn -0.848592 -0.310726 -0.428184
v -0.026889 0.009241 0.104223
vt 0.187190 0.331647
vn -0.843974 0.330108 -0.422772
v -0.018651 0.020241 0.104223
vt 0.213316 0.339899
vn -0.677498 0.101872 -0.728436
v -0.018651 0.023942 0.164088
vt 0.213752 0.461529
vn -0.628490 0.305394 0.715356
v -0.018651 0.030168 0.157588
vt 0.226786 0.449091
vn -0.632053 0.719095 0.288809
v -0.018651 0.030168 0.104223
vt 0.233342 0.341733
vn -0.577350 0.577350 -0.577350
v -0.018651 -0.041961 0.160382
vt 0.081482 0.452329
vn -0.650988 -0.606258 0.456800
v -0.018651 -0.061263 0.110885
vt 0.041423 0.352683
vn -0.706773 -0.659483 0.256037
v -0.018651 -0.061415 0.087692
vt 0.040627 0.305804
vn -0.605603 0.188823 -0.773040
v -0.018651 -0.069242 0.090242
vt 0.024858 0.311123
vn -0.574567 -0.739267 -0.351222
v -0.020452 0.032745 0.165574
vt 0.638761 0.165532
vn -0.609996 -0.396197 0.686246
v -0.020452 0.041745 0.160378
vt 0.651019 0.165532
vn -0.609999 0.792402 0.000041
v -0.020452 0.038745 0.165574
vt 0.644890 0.154916
vn -0.609995 0.396197 0.686246
v -0.020452 0.038745 0.155180
vt 0.644890 0.176149
vn -0.609988 0.396235 -0.686230
v -0.020452 0.032745 0.165574
vt 0.638761 0.165532
vn -0.609996 -0.396197 0.686246
v -0.020452 0.032745 0.155180
vt 0.632631 0.176149
vn -0.609988 -0.396235 -0.686230
v -0.020452 0.032745 0.165574
vt 0.638761 0.165532
vn -0.609996 -0.396197 0.686246
v -0.020452 0.029745 0.160378
vt 0.626502 0.165532
vn -0.610000 -0.792402 0.000041
v 0.020348 0.041745 0.160378
vt 0.596652 0.179069
vn 0.610000 0.792402 0.000041
v -0.020452 0.038745 0.165574
vt 0.513295 0.166811
vn -0.609995 0.396197 0.686246
v -0.020452 0.041745 0.160378
vt 0.513295 0.179069
vn -0.609999 0.792402 0.000041
v 0.020348 0.038745 0.165574
vt 0.596652 0.166811
vn 0.609996 0.396197 0.686246
v -0.020452 0.032745 0.165574
vt 0.513295 0.154553
vn -0.609996 -0.396197 0.686246
v 0.020348 0.032745 0.165574
vt 0.596652 0.154553
vn 0.609995 -0.396197 0.686246
v -0.020452 0.029745 0.160378
vt 0.513295 0.142294
vn -0.610000 -0.792402 0.000041
v 0.020348 0.029745 0.160378
vt 0.596652 0.142294
vn 0.610000 -0.792402 0.000041
v -0.020452 0.032745 0.155180
vt 0.513295 0.130036
vn -0.609988 -0.396235 -0.686230
v 0.020348 0.032745 0.155180
vt 0.596652 0.130036
vn 0.609988 -0.396236 -0.686230
v 0.020348 0.038745 0.155180
vt 0.596652 0.191328
vn 0.609988 0.396235 -0.686230
v -0.020452 0.038745 0.155180
vt 0.513295 0.191328
vn -0.609988 0.396235 -0.686230
v 0.020348 0.032745 0.155180
vt 0.596652 0.203586
vn 0.609988 -0.396236 -0.686230
v -0.020452 0.032745 0.155180
vt 0.513295 0.203586
vn -0.609988 -0.396235 -0.686230
v 0.020348 0.038745 0.155180
vt 0.626668 0.137283
vn 0.609988 0.396235 -0.686230
v 0.020348 0.038745 0.165574
vt 0.632797 0.147899
vn 0.609996 0.396197 0.686246
v 0.020348 0.041745 0.160378
vt 0.638926 0.137283
vn 0.610000 0.792402 0.000041
v 0.020348 0.038745 0.155180
vt 0.626668 0.137283
vn 0.609988 0.396235 -0.686230
v 0.020348 0.032745 0.165574
vt 0.620539 0.147899
vn 0.609995 -0.396197 0.686246
v 0.020348 0.038745 0.155180
vt 0.626668 0.137283
vn 0.609988 0.396235 -0.686230
v 0.020348 0.029745 0.160378
vt 0.614409 0.137283
vn 0.610000 -0.792402 0.000041
v 0.020348 0.032745 0.155180
vt 0.620539 0.126667
vn 0.609988 -0.396236 -0.686230
# Faces (1 to 166)
g M67_0
f -164/-164/-164 -165/-165/-165 -166/-166/-166
f -164/-164/-164 -163/-163/-163 -165/-165/-165
f -162/-162/-162 -165/-165/-165 -163/-163/-163
f -165/-165/-165 -162/-162/-162 -161/-161/-161
f -165/-165/-165 -161/-161/-161 -160/-160/-160
f -159/-159/-159 -161/-161/-161 -162/-162/-162
f -161/-161/-161 -159/-159/-159 -158/-158/-158
f -161/-161/-161 -158/-158/-158 -157/-157/-157
f -156/-156/-156 -158/-158/-158 -159/-159/-159
f -158/-158/-158 -156/-156/-156 -155/-155/-155
f -158/-158/-158 -155/-155/-155 -154/-154/-154
f -153/-153/-153 -155/-155/-155 -156/-156/-156
f -155/-155/-155 -153/-153/-153 -152/-152/-152
f -155/-155/-155 -152/-152/-152 -151/-151/-151
f -150/-150/-150 -152/-152/-152 -153/-153/-153
f -152/-152/-152 -150/-150/-150 -149/-149/-149
f -152/-152/-152 -149/-149/-149 -148/-148/-148
f -147/-147/-147 -149/-149/-149 -150/-150/-150
f -149/-149/-149 -147/-147/-147 -146/-146/-146
f -149/-149/-149 -146/-146/-146 -145/-145/-145
f -144/-144/-144 -146/-146/-146 -147/-147/-147
f -146/-146/-146 -144/-144/-144 -143/-143/-143
f -146/-146/-146 -143/-143/-143 -142/-142/-142
f -141/-141/-141 -143/-143/-143 -144/-144/-144
f -143/-143/-143 -141/-141/-141 -140/-140/-140
f -143/-143/-143 -140/-140/-140 -139/-139/-139
f -138/-138/-138 -140/-140/-140 -141/-141/-141
f -140/-140/-140 -138/-138/-138 -137/-137/-137
f -140/-140/-140 -137/-137/-137 -136/-136/-136
f -135/-135/-135 -137/-137/-137 -138/-138/-138
f -150/-150/-150 -134/-134/-134 -147/-147/-147
f -134/-134/-134 -150/-150/-150 -133/-133/-133
f -153/-153/-153 -133/-133/-133 -150/-150/-150
f -133/-133/-133 -153/-153/-153 -132/-132/-132
f -156/-156/-156 -132/-132/-132 -153/-153/-153
f -132/-132/-132 -156/-156/-156 -131/-131/-131
f -159/-159/-159 -131/-131/-131 -156/-156/-156
f -131/-131/-131 -159/-159/-159 -130/-130/-130
f -162/-162/-162 -130/-130/-130 -159/-159/-159
f -130/-130/-130 -162/-162/-162 -129/-129/-129
f -163/-163/-163 -129/-129/-129 -162/-162/-162
f -138/-138/-138 -128/-128/-128 -135/-135/-135
f -128/-128/-128 -138/-138/-138 -127/-127/-127
f -141/-141/-141 -127/-127/-127 -138/-138/-138
f -127/-127/-127 -141/-141/-141 -126/-126/-126
f -144/-144/-144 -126/-126/-126 -141/-141/-141
f -126/-126/-126 -144/-144/-144 -125/-125/-125
f -147/-147/-147 -125/-125/-125 -144/-144/-144
f -125/-125/-125 -147/-147/-147 -134/-134/-134
f -129/-129/-129 -124/-124/-124 -130/-130/-130
f -123/-123/-123 -130/-130/-130 -124/-124/-124
f -130/-130/-130 -123/-123/-123 -131/-131/-131
f -122/-122/-122 -131/-131/-131 -123/-123/-123
f -131/-131/-131 -122/-122/-122 -132/-132/-132
f -121/-121/-121 -132/-132/-132 -122/-122/-122
f -132/-132/-132 -121/-121/-121 -133/-133/-133
f -120/-120/-120 -133/-133/-133 -121/-121/-121
f -133/-133/-133 -120/-120/-120 -134/-134/-134
f -119/-119/-119 -134/-134/-134 -120/-120/-120
f -134/-134/-134 -119/-119/-119 -125/-125/-125
f -118/-118/-118 -125/-125/-125 -119/-119/-119
f -125/-125/-125 -118/-118/-118 -126/-126/-126
f -117/-117/-117 -126/-126/-126 -118/-118/-118
f -126/-126/-126 -117/-117/-117 -127/-127/-127
f -116/-116/-116 -127/-127/-127 -117/-117/-117
f -127/-127/-127 -116/-116/-116 -128/-128/-128
f -115/-115/-115 -128/-128/-128 -116/-116/-116
f -128/-128/-128 -115/-115/-115 -114/-114/-114
f -114/-114/-114 -135/-135/-135 -128/-128/-128
f -113/-113/-113 -114/-114/-114 -115/-115/-115
f -121/-121/-121 -122/-122/-122 -112/-112/-112
f -111/-111/-111 -112/-112/-112 -122/-122/-122
f -122/-122/-122 -123/-123/-123 -111/-111/-111
f -110/-110/-110 -111/-111/-111 -123/-123/-123
f -110/-110/-110 -123/-123/-123 -109/-109/-109
f -124/-124/-124 -109/-109/-109 -123/-123/-123
f -116/-116/-116 -117/-117/-117 -108/-108/-108
f -107/-107/-107 -108/-108/-108 -117/-117/-117
f -117/-117/-117 -118/-118/-118 -107/-107/-107
f -106/-106/-106 -107/-107/-107 -118/-118/-118
f -118/-118/-118 -119/-119/-119 -106/-106/-106
f -105/-105/-105 -106/-106/-106 -119/-119/-119
f -119/-119/-119 -120/-120/-120 -105/-105/-105
f -104/-104/-104 -105/-105/-105 -120/-120/-120
f -120/-120/-120 -121/-121/-121 -104/-104/-104
f -112/-112/-112 -104/-104/-104 -121/-121/-121
f -110/-110/-110 -109/-109/-109 -103/-103/-103
f -102/-102/-102 -103/-103/-103 -109/-109/-109
f -103/-103/-103 -101/-101/-101 -110/-110/-110
f -104/-104/-104 -112/-112/-112 -100/-100/-100
f -99/-99/-99 -100/-100/-100 -112/-112/-112
f -112/-112/-112 -111/-111/-111 -99/-99/-99
f -101/-101/-101 -99/-99/-99 -111/-111/-111
f -111/-111/-111 -110/-110/-110 -101/-101/-101
f -105/-105/-105 -104/-104/-104 -98/-98/-98
f -100/-100/-100 -98/-98/-98 -104/-104/-104
f -106/-106/-106 -105/-105/-105 -97/-97/-97
f -98/-98/-98 -97/-97/-97 -105/-105/-105
f -97/-97/-97 -96/-96/-96 -106/-106/-106
f -107/-107/-107 -106/-106/-106 -96/-96/-96
f -96/-96/-96 -95/-95/-95 -107/-107/-107
f -108/-108/-108 -107/-107/-107 -95/-95/-95
f -95/-95/-95 -94/-94/-94 -108/-108/-108
f -93/-93/-93 -108/-108/-108 -94/-94/-94
f -108/-108/-108 -93/-93/-93 -116/-116/-116
f -115/-115/-115 -116/-116/-116 -93/-93/-93
f -115/-115/-115 -93/-93/-93 -113/-113/-113
f -92/-92/-92 -113/-113/-113 -93/-93/-93
f -92/-92/-92 -93/-93/-93 -91/-91/-91
f -94/-94/-94 -91/-91/-91 -93/-93/-93
f -88/-88/-88 -89/-89/-89 -90/-90/-90
f -87/-87/-87 -90/-90/-90 -89/-89/-89
f -86/-86/-86 -89/-89/-89 -88/-88/-88
f -85/-85/-85 -89/-89/-89 -86/-86/-86
f -84/-84/-84 -89/-89/-89 -85/-85/-85
f -87/-87/-87 -89/-89/-89 -83/-83/-83
f -83/-83/-83 -89/-89/-89 -82/-82/-82
f -84/-84/-84 -81/-81/-81 -89/-89/-89
f -82/-82/-82 -89/-89/-89 -81/-81/-81
f -87/-87/-87 -80/-80/-80 -90/-90/-90
f -79/-79/-79 -90/-90/-90 -80/-80/-80
f -90/-90/-90 -79/-79/-79 -78/-78/-78
f -77/-77/-77 -78/-78/-78 -79/-79/-79
f -74/-74/-74 -75/-75/-75 -76/-76/-76
f -73/-73/-73 -76/-76/-76 -75/-75/-75
f -76/-76/-76 -73/-73/-73 -72/-72/-72
f -71/-71/-71 -72/-72/-72 -73/-73/-73
f -75/-75/-75 -74/-74/-74 -70/-70/-70
f -69/-69/-69 -70/-70/-70 -74/-74/-74
f -71/-71/-71 -68/-68/-68 -72/-72/-72
f -67/-67/-67 -72/-72/-72 -68/-68/-68
f -68/-68/-68 -66/-66/-66 -67/-67/-67
f -65/-65/-65 -67/-67/-67 -66/-66/-66
f -69/-69/-69 -64/-64/-64 -70/-70/-70
f -63/-63/-63 -70/-70/-70 -64/-64/-64
f -60/-60/-60 -61/-61/-61 -62/-62/-62
f -59/-59/-59 -62/-62/-62 -61/-61/-61
f -59/-59/-59 -58/-58/-58 -62/-62/-62
f -57/-57/-57 -62/-62/-62 -58/-58/-58
f -58/-58/-58 -56/-56/-56 -57/-57/-57
f -55/-55/-55 -57/-57/-57 -56/-56/-56
f -56/-56/-56 -54/-54/-54 -55/-55/-55
f -53/-53/-53 -55/-55/-55 -54/-54/-54
f -54/-54/-54 -52/-52/-52 -53/-53/-53
f -51/-51/-51 -53/-53/-53 -52/-52/-52
f -52/-52/-52 -50/-50/-50 -51/-51/-51
f -49/-49/-49 -51/-51/-51 -50/-50/-50
f -46/-46/-46 -47/-47/-47 -48/-48/-48
f -45/-45/-45 -48/-48/-48 -47/-47/-47
f -42/-42/-42 -43/-43/-43 -44/-44/-44
f -41/-41/-41 -44/-44/-44 -43/-43/-43
f -44/-44/-44 -40/-40/-40 -42/-42/-42
f -44/-44/-44 -39/-39/-39 -40/-40/-40
f -44/-44/-44 -38/-38/-38 -39/-39/-39
f -44/-44/-44 -41/-41/-41 -37/-37/-37
f -44/-44/-44 -37/-37/-37 -36/-36/-36
f -38/-38/-38 -44/-44/-44 -35/-35/-35
f -36/-36/-36 -35/-35/-35 -44/-44/-44
f -41/-41/-41 -43/-43/-43 -34/-34/-34
f -33/-33/-33 -34/-34/-34 -43/-43/-43
f -43/-43/-43 -32/-32/-32 -33/-33/-33
f -31/-31/-31 -33/-33/-33 -32/-32/-32
f -28/-28/-28 -29/-29/-29 -30/-30/-30
f -29/-29/-29 -27/-27/-27 -30/-30/-30
f -25/-25/-25 -26/-26/-26 -27/-27/-27
f -25/-25/-25 -23/-23/-23 -24/-24/-24
f -20/-20/-20 -21/-21/-21 -22/-22/-22
f -19/-19/-19 -22/-22/-22 -21/-21/-21
f -21/-21/-21 -18/-18/-18 -19/-19/-19
f -17/-17/-17 -19/-19/-19 -18/-18/-18
f -18/-18/-18 -16/-16/-16 -17/-17/-17
f -15/-15/-15 -17/-17/-17 -16/-16/-16
f -16/-16/-16 -14/-14/-14 -15/-15/-15
f -13/-13/-13 -15/-15/-15 -14/-14/-14
f -22/-22/-22 -12/-12/-12 -20/-20/-20
f -11/-11/-11 -20/-20/-20 -12/-12/-12
f -12/-12/-12 -10/-10/-10 -11/-11/-11
f -9/-9/-9 -11/-11/-11 -10/-10/-10
f -6/-6/-6 -7/-7/-7 -8/-8/-8
f -7/-7/-7 -4/-4/-4 -5/-5/-5
f -2/-2/-2 -3/-3/-3 -4/-4/-4
f -2/-2/-2 -1/-1/-1 -3/-3/-3

