# Mesh "Flashbang" exported with Unity Assets Bundle Extractor; 98 vertices, 288 indices, 256 bits per vertex
g Flashbang
# SubMesh 0
# Vertices
v -0.013490 -0.050350 -0.059932
vt 0.724725 0.631431
vn -0.456421 -0.602781 0.654473
v -0.000044 -0.054732 -0.049299
vt 0.813500 0.680694
vn 0.001037 -0.620296 -0.784367
v -0.000044 -0.054732 -0.059932
vt 0.814259 0.633009
vn 0.001269 -0.759843 0.650106
v -0.013490 -0.050350 -0.049299
vt 0.725310 0.680806
vn -0.363062 -0.507113 -0.781679
v -0.022087 -0.038879 -0.059932
vt 0.606279 0.631803
vn -0.712564 -0.249842 0.655616
v -0.022087 -0.038879 -0.049299
vt 0.604964 0.680584
vn -0.982223 -0.155058 -0.105810
v -0.022088 -0.024777 -0.059932
vt 0.483021 0.631197
vn -0.709525 0.240741 0.662282
v -0.022088 -0.024781 -0.049299
vt 0.481781 0.681300
vn -0.956813 0.288654 -0.034466
v -0.013490 -0.013115 -0.059932
vt 0.414966 0.631182
vn -0.458537 0.591226 0.663473
v -0.013490 -0.013115 -0.049299
vt 0.414161 0.682110
vn -0.591394 0.801653 -0.087203
v -0.000051 -0.008677 -0.059932
vt 0.311811 0.630961
vn 0.001152 0.747695 0.664041
v -0.000041 -0.008390 -0.049299
vt 0.312411 0.681376
vn 0.001419 0.997683 -0.068018
v 0.013253 -0.013115 -0.059932
vt 0.225814 0.630663
vn 0.456900 0.596219 0.660125
v 0.013249 -0.013115 -0.049299
vt 0.226268 0.682171
vn 0.584985 0.806171 -0.088779
v 0.022193 -0.024777 -0.059932
vt 0.189835 0.630874
vn 0.707019 0.246079 0.663000
v 0.022191 -0.024777 -0.049299
vt 0.189986 0.681939
vn 0.954177 0.297138 -0.035419
v 0.022193 -0.038879 -0.059932
vt 0.112304 0.630733
vn 0.710128 -0.255352 0.656136
v 0.022191 -0.038879 -0.049308
vt 0.120654 0.682050
vn 0.981184 -0.159343 -0.109031
v 0.013253 -0.050350 -0.059932
vt 0.093435 0.630687
vn 0.454827 -0.607667 0.651056
v 0.013249 -0.050350 -0.049299
vt 0.093221 0.682129
vn 0.360818 -0.513032 -0.778851
v -0.000044 -0.054732 -0.059932
vt 0.072935 0.630538
vn 0.001269 -0.759843 0.650106
v -0.000044 -0.054732 -0.049299
vt 0.073000 0.682248
vn 0.001037 -0.620296 -0.784367
v 0.032319 0.027142 -0.071838
vt 0.298038 0.531220
vn 0.425814 0.737888 0.523644
v 0.064879 -0.029254 -0.071838
vt 0.152546 0.533087
vn 0.852966 0.002071 0.521962
v 0.064879 -0.029254 -0.311638
vt 0.152546 0.020466
vn 0.792405 0.000000 -0.609995
v 0.032319 0.027142 -0.311638
vt 0.297912 0.020466
vn 0.396204 0.686243 -0.609994
v -0.032801 0.027142 -0.071838
vt 0.437991 0.532488
vn -0.425878 0.737486 0.524158
v -0.032801 0.027142 -0.311638
vt 0.446637 0.019357
vn -0.396199 0.686245 -0.609995
v -0.065362 -0.029254 -0.071838
vt 0.587058 0.534330
vn -0.852498 0.002019 0.522727
v -0.065362 -0.029254 -0.311638
vt 0.588743 0.019617
vn -0.792407 0.000000 -0.609993
v -0.032801 -0.085650 -0.071838
vt 0.735932 0.536192
vn -0.430760 -0.741417 0.514536
v -0.032801 -0.085650 -0.311638
vt 0.740197 0.020373
vn -0.396199 -0.686245 -0.609995
v 0.032319 -0.085650 -0.071838
vt 0.888016 0.535126
vn 0.430736 -0.741890 0.513873
v 0.032319 -0.085650 -0.311638
vt 0.888111 0.019987
vn 0.396204 -0.686243 -0.609994
v 0.032319 -0.085650 -0.311638
vt 0.010234 0.020358
vn 0.396204 -0.686243 -0.609994
v 0.032319 -0.085650 -0.071838
vt 0.009441 0.532750
vn 0.430736 -0.741890 0.513873
v 0.022191 -0.038879 -0.049308
vt 0.992918 0.712241
vn 0.981184 -0.159343 -0.109031
v 0.022191 -0.011777 0.001044
vt 0.892396 0.764776
vn 0.634613 0.371085 0.677910
v 0.022191 -0.024777 -0.049299
vt 0.992831 0.744952
vn 0.954177 0.297138 -0.035419
v 0.022188 -0.073691 -0.049299
vt 0.993248 0.645659
vn 0.577297 -0.577488 -0.577266
v 0.022191 -0.073675 0.001044
vt 0.892310 0.645734
vn 0.577386 -0.577247 0.577418
v 0.013249 -0.013115 -0.049299
vt 0.992813 0.788822
vn 0.584985 0.806171 -0.088779
v 0.022191 -0.008345 -0.003616
vt 0.899119 0.772598
vn 0.739806 0.655154 0.153171
v -0.000041 -0.008390 -0.049299
vt 0.992620 0.821217
vn 0.001419 0.997683 -0.068018
v -0.022088 -0.008345 -0.003616
vt 0.898857 0.863164
vn -0.736604 0.658020 0.156281
v 0.022191 -0.011777 0.001044
vt 0.887281 0.772199
vn 0.634613 0.371085 0.677910
v -0.022088 -0.011777 0.001044
vt 0.887020 0.862765
vn -0.634056 0.370424 0.678792
v 0.022191 -0.073675 0.001044
vt 0.760402 0.772316
vn 0.577386 -0.577247 0.577418
v -0.022088 -0.073675 0.001044
vt 0.760416 0.862882
vn -0.577386 -0.577247 0.577418
v -0.013490 -0.013115 -0.049299
vt 0.992545 0.850389
vn -0.591394 0.801653 -0.087203
v -0.022088 -0.011777 0.001044
vt 0.891415 0.869590
vn -0.634056 0.370424 0.678792
v -0.022088 -0.024781 -0.049299
vt 0.992337 0.895317
vn -0.956813 0.288654 -0.034466
v -0.022087 -0.038879 -0.049299
vt 0.992095 0.920899
vn -0.982223 -0.155058 -0.105810
v -0.022085 -0.073691 -0.049299
vt 0.991925 0.988959
vn -0.577309 -0.577462 -0.577280
v -0.022088 -0.073675 0.001044
vt 0.891383 0.988971
vn -0.577386 -0.577247 0.577418
v -0.021864 -0.003011 0.005127
vt 0.760734 0.747382
vn -0.610089 -0.395717 0.686440
v -0.021864 0.005989 -0.000069
vt 0.730057 0.729672
vn -0.610004 0.792398 0.000066
v -0.021864 0.002989 0.005127
vt 0.740283 0.747382
vn -0.609995 0.396198 0.686245
v -0.021864 -0.003011 -0.005267
vt 0.760734 0.711954
vn -0.610077 -0.395778 -0.686415
v -0.021864 -0.006020 -0.000069
vt 0.770990 0.729672
vn -0.609817 -0.792542 0.000066
v -0.021864 0.002989 -0.005267
vt 0.740283 0.711954
vn -0.609983 0.396260 -0.686221
v -0.021864 0.005989 -0.000069
vt 0.634649 0.747290
vn -0.610004 0.792398 0.000066
v 0.021759 0.002989 0.005127
vt 0.485826 0.766748
vn 0.609995 0.396198 0.686245
v -0.021864 0.002989 0.005127
vt 0.634512 0.767740
vn -0.609995 0.396198 0.686245
v 0.021759 0.005989 -0.000069
vt 0.485963 0.746297
vn 0.610004 0.792398 0.000066
v 0.021759 -0.003011 0.005127
vt 0.485690 0.787198
vn 0.610089 -0.395717 0.686440
v -0.021864 -0.003011 0.005127
vt 0.634376 0.788191
vn -0.610089 -0.395717 0.686440
v 0.021759 -0.006020 -0.000069
vt 0.485553 0.807663
vn 0.609817 -0.792542 0.000066
v -0.021864 -0.006020 -0.000069
vt 0.634239 0.808657
vn -0.609817 -0.792542 0.000066
v 0.021759 -0.003011 -0.005267
vt 0.485416 0.828135
vn 0.610077 -0.395778 -0.686415
v -0.021864 -0.003011 -0.005267
vt 0.634103 0.829129
vn -0.610077 -0.395778 -0.686415
v -0.021864 0.002989 -0.005267
vt 0.634785 0.726834
vn -0.609983 0.396260 -0.686221
v 0.021759 0.002989 -0.005267
vt 0.486100 0.725842
vn 0.609983 0.396260 -0.686221
v -0.021864 -0.003011 -0.005267
vt 0.634922 0.706384
vn -0.610077 -0.395778 -0.686415
v 0.021759 -0.003011 -0.005267
vt 0.486236 0.705391
vn 0.610077 -0.395778 -0.686415
v 0.021759 0.002989 -0.005267
vt 0.704314 0.709620
vn 0.609983 0.396260 -0.686221
v 0.021759 0.002989 0.005127
vt 0.704314 0.745048
vn 0.609995 0.396198 0.686245
v 0.021759 0.005989 -0.000069
vt 0.714540 0.727337
vn 0.610004 0.792398 0.000066
v 0.021759 -0.006020 -0.000069
vt 0.673607 0.727337
vn 0.609817 -0.792542 0.000066
v 0.021759 -0.003011 0.005127
vt 0.683863 0.745048
vn 0.610089 -0.395717 0.686440
v 0.021759 -0.003011 -0.005267
vt 0.683863 0.709620
vn 0.610077 -0.395778 -0.686415
v -0.032801 0.027142 -0.311638
vt 0.211103 0.926857
vn -0.396199 0.686245 -0.609995
v 0.064879 -0.029254 -0.311638
vt 0.009379 0.810391
vn 0.792405 0.000000 -0.609995
v 0.032319 0.027142 -0.311638
vt 0.076620 0.926857
vn 0.396204 0.686243 -0.609994
v -0.065362 -0.029254 -0.311638
vt 0.278347 0.810391
vn -0.792407 0.000000 -0.609993
v -0.032801 -0.085650 -0.311638
vt 0.211103 0.693923
vn -0.396199 -0.686245 -0.609995
v 0.032319 -0.085650 -0.311638
vt 0.076620 0.693923
vn 0.396204 -0.686243 -0.609994
v -0.022088 -0.073675 0.001044
vt 0.760416 0.862882
vn -0.577386 -0.577247 0.577418
v 0.022188 -0.073691 -0.049299
vt 0.660495 0.772224
vn 0.577297 -0.577488 -0.577266
v -0.022085 -0.073691 -0.049299
vt 0.660509 0.862778
vn -0.577309 -0.577462 -0.577280
v 0.022191 -0.073675 0.001044
vt 0.760402 0.772316
vn 0.577386 -0.577247 0.577418
v -0.000044 -0.054732 -0.049299
vt 0.372246 0.763292
vn 0.001037 -0.620296 -0.784367
v 0.022188 -0.073691 -0.049299
vt 0.454962 0.833829
vn 0.577297 -0.577488 -0.577266
v 0.013249 -0.050350 -0.049299
vt 0.421703 0.746988
vn 0.360818 -0.513032 -0.778851
v -0.022085 -0.073691 -0.049299
vt 0.288652 0.833829
vn -0.577309 -0.577462 -0.577280
v 0.022191 -0.038879 -0.049308
vt 0.454973 0.704309
vn 0.981184 -0.159343 -0.109031
v -0.013490 -0.050350 -0.049299
vt 0.320629 0.746988
vn -0.363062 -0.507113 -0.781679
v -0.022087 -0.038879 -0.049299
vt 0.288644 0.704309
vn -0.982223 -0.155058 -0.105810
# Faces (1 to 98)
g Flashbang_0
f -96/-96/-96 -97/-97/-97 -98/-98/-98
f -97/-97/-97 -95/-95/-95 -98/-98/-98
f -98/-98/-98 -95/-95/-95 -94/-94/-94
f -95/-95/-95 -93/-93/-93 -94/-94/-94
f -92/-92/-92 -94/-94/-94 -93/-93/-93
f -91/-91/-91 -92/-92/-92 -93/-93/-93
f -90/-90/-90 -92/-92/-92 -91/-91/-91
f -89/-89/-89 -90/-90/-90 -91/-91/-91
f -88/-88/-88 -90/-90/-90 -89/-89/-89
f -87/-87/-87 -88/-88/-88 -89/-89/-89
f -88/-88/-88 -87/-87/-87 -86/-86/-86
f -87/-87/-87 -85/-85/-85 -86/-86/-86
f -86/-86/-86 -85/-85/-85 -84/-84/-84
f -85/-85/-85 -83/-83/-83 -84/-84/-84
f -84/-84/-84 -83/-83/-83 -82/-82/-82
f -83/-83/-83 -81/-81/-81 -82/-82/-82
f -82/-82/-82 -81/-81/-81 -80/-80/-80
f -81/-81/-81 -79/-79/-79 -80/-80/-80
f -80/-80/-80 -79/-79/-79 -78/-78/-78
f -79/-79/-79 -77/-77/-77 -78/-78/-78
f -76/-76/-76 -86/-86/-86 -84/-84/-84
f -86/-86/-86 -76/-76/-76 -88/-88/-88
f -75/-75/-75 -76/-76/-76 -84/-84/-84
f -82/-82/-82 -75/-75/-75 -84/-84/-84
f -76/-76/-76 -75/-75/-75 -74/-74/-74
f -73/-73/-73 -76/-76/-76 -74/-74/-74
f -72/-72/-72 -76/-76/-76 -73/-73/-73
f -71/-71/-71 -72/-72/-72 -73/-73/-73
f -70/-70/-70 -72/-72/-72 -71/-71/-71
f -69/-69/-69 -70/-70/-70 -71/-71/-71
f -68/-68/-68 -70/-70/-70 -69/-69/-69
f -67/-67/-67 -68/-68/-68 -69/-69/-69
f -66/-66/-66 -68/-68/-68 -67/-67/-67
f -65/-65/-65 -66/-66/-66 -67/-67/-67
f -74/-74/-74 -75/-75/-75 -64/-64/-64
f -75/-75/-75 -63/-63/-63 -64/-64/-64
f -76/-76/-76 -72/-72/-72 -88/-88/-88
f -88/-88/-88 -72/-72/-72 -90/-90/-90
f -63/-63/-63 -75/-75/-75 -82/-82/-82
f -80/-80/-80 -63/-63/-63 -82/-82/-82
f -78/-78/-78 -63/-63/-63 -80/-80/-80
f -70/-70/-70 -68/-68/-68 -94/-94/-94
f -68/-68/-68 -98/-98/-98 -94/-94/-94
f -98/-98/-98 -68/-68/-68 -96/-96/-96
f -68/-68/-68 -66/-66/-66 -96/-96/-96
f -92/-92/-92 -70/-70/-70 -94/-94/-94
f -90/-90/-90 -72/-72/-72 -92/-92/-92
f -72/-72/-72 -70/-70/-70 -92/-92/-92
f -60/-60/-60 -61/-61/-61 -62/-62/-62
f -62/-62/-62 -61/-61/-61 -59/-59/-59
f -58/-58/-58 -59/-59/-59 -61/-61/-61
f -60/-60/-60 -57/-57/-57 -61/-61/-61
f -61/-61/-61 -57/-57/-57 -56/-56/-56
f -57/-57/-57 -55/-55/-55 -56/-56/-56
f -54/-54/-54 -56/-56/-56 -55/-55/-55
f -56/-56/-56 -54/-54/-54 -53/-53/-53
f -54/-54/-54 -52/-52/-52 -53/-53/-53
f -53/-53/-53 -52/-52/-52 -51/-51/-51
f -52/-52/-52 -50/-50/-50 -51/-51/-51
f -49/-49/-49 -54/-54/-54 -55/-55/-55
f -54/-54/-54 -49/-49/-49 -48/-48/-48
f -47/-47/-47 -48/-48/-48 -49/-49/-49
f -47/-47/-47 -46/-46/-46 -48/-48/-48
f -46/-46/-46 -45/-45/-45 -48/-48/-48
f -44/-44/-44 -48/-48/-48 -45/-45/-45
f -41/-41/-41 -42/-42/-42 -43/-43/-43
f -43/-43/-43 -42/-42/-42 -40/-40/-40
f -40/-40/-40 -39/-39/-39 -43/-43/-43
f -42/-42/-42 -38/-38/-38 -40/-40/-40
f -35/-35/-35 -36/-36/-36 -37/-37/-37
f -36/-36/-36 -34/-34/-34 -37/-37/-37
f -33/-33/-33 -36/-36/-36 -35/-35/-35
f -32/-32/-32 -33/-33/-33 -35/-35/-35
f -31/-31/-31 -33/-33/-33 -32/-32/-32
f -30/-30/-30 -31/-31/-31 -32/-32/-32
f -29/-29/-29 -31/-31/-31 -30/-30/-30
f -28/-28/-28 -29/-29/-29 -30/-30/-30
f -37/-37/-37 -34/-34/-34 -27/-27/-27
f -34/-34/-34 -26/-26/-26 -27/-27/-27
f -27/-27/-27 -26/-26/-26 -25/-25/-25
f -26/-26/-26 -24/-24/-24 -25/-25/-25
f -21/-21/-21 -22/-22/-22 -23/-23/-23
f -23/-23/-23 -22/-22/-22 -20/-20/-20
f -22/-22/-22 -19/-19/-19 -20/-20/-20
f -20/-20/-20 -18/-18/-18 -23/-23/-23
f -15/-15/-15 -16/-16/-16 -17/-17/-17
f -16/-16/-16 -14/-14/-14 -17/-17/-17
f -14/-14/-14 -16/-16/-16 -13/-13/-13
f -16/-16/-16 -12/-12/-12 -13/-13/-13
f -9/-9/-9 -10/-10/-10 -11/-11/-11
f -10/-10/-10 -8/-8/-8 -11/-11/-11
f -5/-5/-5 -6/-6/-6 -7/-7/-7
f -6/-6/-6 -4/-4/-4 -7/-7/-7
f -6/-6/-6 -5/-5/-5 -3/-3/-3
f -2/-2/-2 -7/-7/-7 -4/-4/-4
f -4/-4/-4 -1/-1/-1 -2/-2/-2

